<svg width="175" height="175" viewBox="0 0 175 175" xmlns="http://www.w3.org/2000/svg"><title>Slice 1</title><g fill="none" fill-rule="evenodd"><path d="M44 21c-3.277.26-4.823.564-5 4-10.033 6.095-4.163 17.408-3 26 3.084-2.556 4.78-5.184 6-9l-4 1 3-7c.986 1.478 1 1.203 1 3 10.233-4.076 33.298-11.93 43-3 1.314-.768 1.232-.686 2-2l5 1-1-3c10.118 8.014 21.6 4.097 34 5 0-2.795 1.48-2.265 4-2-.986 1.478-1 1.203-1 3l7-1c1.1 6.17 3.993 13.363 10 16 1.09-4.314 2.976-16.22-1-19 .646-6.023-2.723-9.623-8-12l1-2C116.54 2.73 95.638-3.62 69 2.12 60.41 3.97 44.785 11.033 44 21z" fill="#332717"/><path d="M31 81c1.617 1.3 2.672 2.39 4 4h1c4.558-8.34 9.467-20.906 11.687-30.04 1.065-4.38-1.353-10.763 1.917-14.41 4.58-5.112 10.693-2.957 16.393-3.834C72.347 35.738 78.244 33.572 84 38c10.388-2.293 26.295-.506 37 1.386 3.83.676 9.596.135 11.973 3.894 8.193 12.953 2.58 34.324 9.028 47.72h2l1-3c.99 1.48 1 1.204 1 3h1c.42-3.72 3.23-6.54 3.56-10.05.29-3.05-2.24-5.862-2.49-8.964-.71-8.654.97-17.46-1.06-25.985h-1l-1 7c-5.54-3.52-8.22-9.82-10-16-2.44.11-4.62.43-7 1l1-3c-2.57-.63-4-.81-4 2-13.1-1.46-22.13 1.25-34-5 0 1.8.02 1.53 1 3l-5-1-.98 1-1.01 1c-3.66-6.76-27.28-3.07-34-1.77-4.17.81-6.65 5.71-10 1.78-1.17 2.32-2.17 4.55-3 7l4-1c-1.61 3.38-3.57 6.15-6 9-.5-7.26-2.64-12.42-2-20h-2C26.86 47.93 31.28 64.05 31 81z" fill="#675741"/><path d="M36 85h-1c-1.218-2.118-1.867-2.845-4-4l1-4c-8.384 3.558-4.207 12.337-2.495 19 2.117 8.24-.19 23.11 11.495 24 .194 9.39 2 18.522 2 28h1v-11h1c1.35 6.696 6.928 11.193 12 15.406 19.325 16.05 42.897 13.453 61.816-1.394 11.022-8.65 10.46-18.907 13.603-30.973 1.06-4.1 4.49-6.87 5.58-11.04 3.28 3.69 2.11 7.47 1 12 11.95-1.86 12-28.26 12-38-3.24 2.1-3.8 4.21-4 8h-1c-.25-1.46-.32-1.76-1-3-.99 1.47-1 1.2-1 3h-2c-3.6-9.88-4.52-23.49-6.27-34-.65-3.88-.49-11.32-2.76-14.49-2.2-3.07-7.67-2.55-10.97-3.13-8.25-1.46-15.85-.22-24-.82-5.48-.4-8.43-2.49-14-.57-4.73-5.5-13.15-2.04-19-1.37-5.45.62-10.83-1.26-15.4 3.26-3.32 3.28-.93 9.94-1.92 14.09C45.29 64.02 39.74 75.18 36 85z" fill="#BF9B7D"/><path d="M56 39c2 10.312 0 19.55 0 30 4.088 0 8.018-.043 12 1.015C94.186 76.972 80.517 96.987 88 115c13.842-2.225 3.517-26.08 8.77-35.71 5.727-10.506 24.32-7.113 34.23-7.29-1.466-7.895 3.818-22.293-.318-28.682-2.626-4.056-15.23-3.296-19.682-3.317-12.018-.05-23.475-2.62-35.015-2.98C69.285 36.81 62.813 39 56 39z" fill="#E3C3AB"/><path d="M99 82c3.837.52 6.462-.568 10-2 .37 2.254 3.16 2.4 5 4l-2-1v1c1.686 1.656 2.746 2.25 5 3 .562-1.8.824-3.122 1-5 3.34 2.97 6.15 6.056 9 1-5.226-3.443-9.912-4.852-16-6v-1c2.297-.674 2.774-.965 4-3-7.874 1.462-12.633.67-16 9z" fill="#826254"/><path d="M56 84c2.512-.334 4.62-1.146 7-2l1 4c3.555-1.22 5.338-2.624 7-6-5.345-1.58-12.91-2.268-15 4z" fill="#4F4B3F"/><path d="M107 83v4h-5c1.734 9.204.013 22.338 3.738 30.74 2.77 6.246 10.8 7.217 12.262 14.26-2.784.058-5.29.352-8 1 .406 2.092.217 2.02 2 3v2c-1.803 1.54-1.832 2.597-2 5 13.505-4.718 10.358-11.585 14.985-22 5.732-12.903 10.178-17.266 9.015-32-4.763 0-9.284-.404-14-1v-4c-6.088 2.922-7.427 2.288-13-1z" fill="#D3AD97"/><path d="M138 109c-5.62 13.255-6.926 28.8-17.515 39.71C100.34 169.47 55.65 168.327 45 137h-1c0 8.21-3.452 14.134-5 22l4-2v3h2l2-9c2.59 1.99 5.03 3.628 8 5 4.457-2.82 17.235 14.497 21.546 17.13 3.18 1.94 8.865.87 12.454.87h30c.83-19.29 13.938-28.452 18.96-46 1.484-5.18 4.99-15.388.04-19z" fill="#826254"/><path d="M78 116c6.708 2.886 23.075 6.262 26-3-4.76.056-8.66 3.373-13 3.373-5.63 0-7.62-4.986-13-.373z" fill="#774737"/><path d="M83.463 133.934c1.986 0 4.538-.067 6.34 0 5.543.206 17.265-1.51 24.196-2.934-3.58-2.706-7.12-2.3-11.6-2.586-12.79-.814-23.86-.318-35.41-.414 3.03 5.534 15.54 5.933 16.46 5.934h.01z" fill="#994F49"/><path d="M47 151l-2 9c-1.195-1.223-1.316-1.42-2-3l-4 2 1-5h-1c-1.388 2.702-2.963 4.736-5 7v1c12.01 14.75 24.38 12 42 12-1.298-3.99-17.738-21.466-21-18l-8-5z" fill="#BF9B7D"/><path d="M119 171c.578 2.697 1.26 2.79 4 3-1.45-1.608-2.05-2.064-4-3z" fill="#BFB7A7"/></g></svg>